{
 "cells": [
  {
   "cell_type": "markdown",
   "id": "bc71c82b",
   "metadata": {},
   "source": [
    "Metamorphosis by Franz Kafka\n",
    "\n",
    "Source https://www.gutenberg.org/ebooks/5200\n",
    "\n",
    "Ref https://en.wikipedia.org/wiki/The_Metamorphosis"
   ]
  },
  {
   "cell_type": "code",
   "execution_count": null,
   "id": "8e0fc48f",
   "metadata": {},
   "outputs": [],
   "source": [
    "# Concept art\n",
    "\n",
    "Summary: \n",
    "\n",
    "Genre: \n",
    "\n",
    "Background: \n",
    "\n",
    "Main charactor:\n",
    "\n",
    "Prompt:\n",
    "Main charactor + Background + Summary\n",
    "--ar 3:2 --no text\n",
    "    \n",
    "19th century, Europe, urban town at dawn, in dark and gloomy room,\n",
    "young traveling sales man wake up and see himself transformed into a huge insect depicted as a cockroach,\n",
    "--ar 3:2 --no text\n",
    "\n",
    "19th century, Europe, in dark and gloomy bedroom at dawn,\n",
    "young traveling sales man transforming into a huge insect look like cockroach,\n",
    "he look at his body terrifyingly,\n",
    "--ar 3:2 --no text\n",
    "    \n",
    "19th century, Europe, in dark and gloomy bedroom at dawn,\n",
    "young traveling sales man transforming into a monstrous vermin look like cockroach,\n",
    "it look at itself terrifyingly,\n",
    "--ar 3:2 --no text    "
   ]
  },
  {
   "cell_type": "code",
   "execution_count": null,
   "id": "0229b767",
   "metadata": {},
   "outputs": [],
   "source": [
    "# Youtube description\n",
    "\n",
    "Prompt: Write title, description, and keywords of youtube video of full audiobook of the classic book \"Metamorphosis by Franz Kafka\"\n",
    "\n",
    "Title: Metamorphosis by Franz Kafka: Full Audiobook Edition\n",
    "\n",
    "Description: Experience the haunting and surreal world of Franz Kafka with this full audiobook edition of his classic novella \"Metamorphosis.\" Follow protagonist Gregor Samsa as he wakes up one morning to find himself transformed into a giant insect, and witness the profound and disturbing changes that this metamorphosis brings about in his life and relationships. Let the atmospheric narration and unsettling soundscape transport you to the world of Kafka's imagination.\n",
    "\n",
    "0:00:00 Chapter 1\n",
    "0:37:37 Chaptor 2\n",
    "1:16:04 Chaptor 3\n",
    "        \n",
    "Credits\n",
    "Text: Project Gutenberg https://www.gutenberg.org/ebooks/5200\n",
    "Voice: Google Cloud Text-to-Speech\n",
    "Produced by: The Classic Narrator 2023\n",
    "    \n",
    "Keywords: Metamorphosis, Franz Kafka, full audiobook, classic literature, novella, surreal, haunting, Gregor Samsa, transformation, insect, atmospheric narration, unsettling soundscape, classic novel\n"
   ]
  },
  {
   "cell_type": "code",
   "execution_count": null,
   "id": "77a554fb",
   "metadata": {},
   "outputs": [],
   "source": [
    "# Voice test\n",
    "\n",
    "from TextToAudiobook import *\n",
    "test_tta = TextToAudiobook(\"test\")\n",
    "\n",
    "\n",
    "\n",
    "text = '''\n",
    "\n",
    "xxxx\n",
    "\n",
    "'''\n",
    "\n",
    "# Test voices\n",
    "voice = texttospeech.VoiceSelectionParams(\n",
    "    language_code=\"en-GB\",\n",
    "    name=\"en-GB-Neural2-A\",\n",
    ")\n",
    "\n",
    "voice = texttospeech.VoiceSelectionParams(\n",
    "    language_code=\"en-GB\",\n",
    "    name=\"en-GB-Standard-A\",\n",
    ")\n",
    "\n",
    "\n",
    "audio_config = texttospeech.AudioConfig(\n",
    "    audio_encoding=texttospeech.AudioEncoding.MP3,\n",
    "    speaking_rate=0.9\n",
    ")\n",
    "\n",
    "test_tta.synthesize_ssml(text, \"output.mp3\", voice, audio_config)\n",
    "# test_tta.synthesize_text(text, \"output.mp3\", voice, audio_config)\n",
    "\n"
   ]
  },
  {
   "cell_type": "code",
   "execution_count": 1,
   "id": "0326b8d9",
   "metadata": {},
   "outputs": [],
   "source": [
    "%load_ext autoreload\n",
    "%reload_ext autoreload\n",
    "%autoreload 2"
   ]
  },
  {
   "cell_type": "code",
   "execution_count": 6,
   "id": "c3793734",
   "metadata": {},
   "outputs": [],
   "source": [
    "# Text to script\n",
    "\n",
    "from TextToAudiobook import *\n",
    "\n",
    "folder_name = \"Metamorphosis\"\n",
    "file_name = \"5200-1.txt\"\n",
    "\n",
    "test_tta = TextToAudiobook(folder_name, char_limit_per_call=1000)"
   ]
  },
  {
   "cell_type": "code",
   "execution_count": 7,
   "id": "4b63cb09",
   "metadata": {},
   "outputs": [
    {
     "name": "stdout",
     "output_type": "stream",
     "text": [
      "Clean: 1877 lines\n",
      "./Metamorphosis/project_file/clean/5200-1.txt\n",
      "Tag: 1877 lines\n",
      "./Metamorphosis/project_file/tag/5200-1.txt\n",
      "Break: 1877 lines\n",
      "./Metamorphosis/project_file/break/5200-1.txt\n",
      "Split: 125 files\n",
      "./Metamorphosis/project_file/split/5200-1_txt/\n"
     ]
    }
   ],
   "source": [
    "#1 Clean raw file and copy to clean folder\n",
    "print(test_tta.clean_txt_raw(file_name))\n",
    "\n",
    "#2 Tag speech in clean file and copy to tag folder\n",
    "print(test_tta.tag_txt_clean(file_name))\n",
    "\n",
    "#3 Mark break point by chapter and characters limit\n",
    "print(test_tta.break_txt_tag(file_name))\n",
    "\n",
    "#4 Split into files by chapter and characters break\n",
    "print(test_tta.split_txt_break(file_name))"
   ]
  },
  {
   "cell_type": "code",
   "execution_count": 11,
   "id": "750cd4eb",
   "metadata": {},
   "outputs": [
    {
     "name": "stdout",
     "output_type": "stream",
     "text": [
      "Generate audio => ./Metamorphosis/project_file/audio/5200-1_txt/0003_022.mp3\n",
      "Generate audio => ./Metamorphosis/project_file/audio/5200-1_txt/0003_023.mp3\n",
      "Generate audio => ./Metamorphosis/project_file/audio/5200-1_txt/0003_024.mp3\n",
      "Generate audio => ./Metamorphosis/project_file/audio/5200-1_txt/0003_025.mp3\n",
      "Generate audio => ./Metamorphosis/project_file/audio/5200-1_txt/0003_026.mp3\n",
      "Generate audio => ./Metamorphosis/project_file/audio/5200-1_txt/0003_027.mp3\n",
      "Generate audio => ./Metamorphosis/project_file/audio/5200-1_txt/0003_028.mp3\n",
      "Generate audio => ./Metamorphosis/project_file/audio/5200-1_txt/0003_029.mp3\n",
      "Generate audio => ./Metamorphosis/project_file/audio/5200-1_txt/0003_030.mp3\n",
      "Generate audio => ./Metamorphosis/project_file/audio/5200-1_txt/0003_031.mp3\n",
      "Generate audio => ./Metamorphosis/project_file/audio/5200-1_txt/0003_032.mp3\n",
      "Generate audio => ./Metamorphosis/project_file/audio/5200-1_txt/0003_033.mp3\n",
      "Generate audio => ./Metamorphosis/project_file/audio/5200-1_txt/0003_034.mp3\n",
      "Generate audio => ./Metamorphosis/project_file/audio/5200-1_txt/0003_035.mp3\n",
      "Generate audio => ./Metamorphosis/project_file/audio/5200-1_txt/0003_036.mp3\n",
      "Generate audio => ./Metamorphosis/project_file/audio/5200-1_txt/0003_037.mp3\n",
      "Generate audio => ./Metamorphosis/project_file/audio/5200-1_txt/0003_038.mp3\n",
      "Generate audio => ./Metamorphosis/project_file/audio/5200-1_txt/0003_039.mp3\n",
      "Generate audio => ./Metamorphosis/project_file/audio/5200-1_txt/0003_040.mp3\n",
      "Generate audio => ./Metamorphosis/project_file/audio/5200-1_txt/0003_041.mp3\n",
      "Generate audio => ./Metamorphosis/project_file/audio/5200-1_txt/0003_042.mp3\n",
      "Generate audio => ./Metamorphosis/project_file/audio/5200-1_txt/0003_043.mp3\n",
      "Synthesize: 22 files\n",
      "./Metamorphosis/project_file/audio/5200-1_txt/\n"
     ]
    }
   ],
   "source": [
    "# Split into files by chapter and characters break\n",
    "voice = texttospeech.VoiceSelectionParams(\n",
    "    language_code=\"en-GB\",\n",
    "    name=\"en-GB-News-K\",\n",
    ")\n",
    "\n",
    "audio_config = texttospeech.AudioConfig(\n",
    "    audio_encoding=texttospeech.AudioEncoding.MP3,\n",
    "    speaking_rate=0.8\n",
    ")\n",
    "print(test_tta.synthesize_txt_split(file_name, file_limit=50, voice=voice, audio_config=audio_config))\n"
   ]
  },
  {
   "cell_type": "code",
   "execution_count": 12,
   "id": "ab7994d6",
   "metadata": {},
   "outputs": [
    {
     "name": "stdout",
     "output_type": "stream",
     "text": [
      "Generate track list: ./Metamorphosis/project_file/audio/5200-1_txt/track_list.txt [total: 125 files]\n"
     ]
    },
    {
     "name": "stderr",
     "output_type": "stream",
     "text": [
      "ffmpeg version 5.1.2 Copyright (c) 2000-2022 the FFmpeg developers\n",
      "  built with Apple clang version 14.0.0 (clang-1400.0.29.102)\n",
      "  configuration: --prefix=/usr/local/Cellar/ffmpeg/5.1.2 --enable-shared --enable-pthreads --enable-version3 --cc=clang --host-cflags= --host-ldflags= --enable-ffplay --enable-gnutls --enable-gpl --enable-libaom --enable-libbluray --enable-libdav1d --enable-libmp3lame --enable-libopus --enable-librav1e --enable-librist --enable-librubberband --enable-libsnappy --enable-libsrt --enable-libtesseract --enable-libtheora --enable-libvidstab --enable-libvmaf --enable-libvorbis --enable-libvpx --enable-libwebp --enable-libx264 --enable-libx265 --enable-libxml2 --enable-libxvid --enable-lzma --enable-libfontconfig --enable-libfreetype --enable-frei0r --enable-libass --enable-libopencore-amrnb --enable-libopencore-amrwb --enable-libopenjpeg --enable-libspeex --enable-libsoxr --enable-libzmq --enable-libzimg --disable-libjack --disable-indev=jack --enable-videotoolbox\n",
      "  libavutil      57. 28.100 / 57. 28.100\n",
      "  libavcodec     59. 37.100 / 59. 37.100\n",
      "  libavformat    59. 27.100 / 59. 27.100\n",
      "  libavdevice    59.  7.100 / 59.  7.100\n",
      "  libavfilter     8. 44.100 /  8. 44.100\n",
      "  libswscale      6.  7.100 /  6.  7.100\n",
      "  libswresample   4.  7.100 /  4.  7.100\n",
      "  libpostproc    56.  6.100 / 56.  6.100\n",
      "[mp3 @ 0x7f9a23908780] Estimating duration from bitrate, this may be inaccurate\n",
      "Input #0, concat, from './Metamorphosis/project_file/audio/5200-1_txt/track_list.txt':\n",
      "  Duration: N/A, start: 0.000000, bitrate: 32 kb/s\n",
      "  Stream #0:0: Audio: mp3, 24000 Hz, mono, fltp, 32 kb/s\n",
      "Output #0, mp3, to './Metamorphosis/project_file/audio/5200-1_txt.mp3':\n",
      "  Metadata:\n",
      "    TSSE            : Lavf59.27.100\n",
      "  Stream #0:0: Audio: mp3, 24000 Hz, mono, fltp, 32 kb/s\n",
      "Stream mapping:\n",
      "  Stream #0:0 -> #0:0 (copy)\n",
      "Press [q] to stop, [?] for help\n",
      "[mp3 @ 0x7f9a23908740] Estimating duration from bitrate, this may be inaccurate\n",
      "[mp3 @ 0x7f9a23805f40] Estimating duration from bitrate, this may be inaccurate\n",
      "[mp3 @ 0x7f9a23908740] Estimating duration from bitrate, this may be inaccurate\n",
      "[mp3 @ 0x7f9a23f041c0] Estimating duration from bitrate, this may be inaccurate\n",
      "[mp3 @ 0x7f9a23d04780] Estimating duration from bitrate, this may be inaccurate\n",
      "[mp3 @ 0x7f9a23f04300] Estimating duration from bitrate, this may be inaccurate\n",
      "[mp3 @ 0x7f9a23f04080] Estimating duration from bitrate, this may be inaccurate\n",
      "[mp3 @ 0x7f9a23908740] Estimating duration from bitrate, this may be inaccurate\n",
      "[mp3 @ 0x7f9a23a04b00] Estimating duration from bitrate, this may be inaccurate\n",
      "[mp3 @ 0x7f9a23805f40] Estimating duration from bitrate, this may be inaccurate\n",
      "[mp3 @ 0x7f9a22f08d80] Estimating duration from bitrate, this may be inaccurate\n",
      "[mp3 @ 0x7f9a23a04d00] Estimating duration from bitrate, this may be inaccurate\n",
      "[mp3 @ 0x7f9a23805f40] Estimating duration from bitrate, this may be inaccurate\n",
      "[mp3 @ 0x7f9a23a04b00] Estimating duration from bitrate, this may be inaccurate\n",
      "[mp3 @ 0x7f9a22f08d80] Estimating duration from bitrate, this may be inaccurate\n",
      "[mp3 @ 0x7f9a23f04080] Estimating duration from bitrate, this may be inaccurate\n",
      "[mp3 @ 0x7f9a23806180] Estimating duration from bitrate, this may be inaccurate\n",
      "[mp3 @ 0x7f9a23a04ac0] Estimating duration from bitrate, this may be inaccurate\n",
      "[mp3 @ 0x7f9a23805fc0] Estimating duration from bitrate, this may be inaccurate\n",
      "[mp3 @ 0x7f9a23e04080] Estimating duration from bitrate, this may be inaccurate\n",
      "[mp3 @ 0x7f9a23805f40] Estimating duration from bitrate, this may be inaccurate\n",
      "    Last message repeated 1 times\n",
      "[mp3 @ 0x7f9a23a04ac0] Estimating duration from bitrate, this may be inaccurate\n",
      "[mp3 @ 0x7f9a23a054c0] Estimating duration from bitrate, this may be inaccurate\n",
      "[mp3 @ 0x7f9a23a04b80] Estimating duration from bitrate, this may be inaccurate\n",
      "[mp3 @ 0x7f9a23805f40] Estimating duration from bitrate, this may be inaccurate\n",
      "[mp3 @ 0x7f9a239089c0] Estimating duration from bitrate, this may be inaccurate\n",
      "[mp3 @ 0x7f9a23a04ac0] Estimating duration from bitrate, this may be inaccurate\n",
      "[mp3 @ 0x7f9a23e04840] Estimating duration from bitrate, this may be inaccurate\n",
      "[mp3 @ 0x7f9a239092c0] Estimating duration from bitrate, this may be inaccurate\n",
      "[mp3 @ 0x7f9a22f08d80] Estimating duration from bitrate, this may be inaccurate\n",
      "[mp3 @ 0x7f9a23908740] Estimating duration from bitrate, this may be inaccurate\n",
      "[mp3 @ 0x7f9a23a04ac0] Estimating duration from bitrate, this may be inaccurate\n",
      "[mp3 @ 0x7f9a22f05480] Estimating duration from bitrate, this may be inaccurate\n",
      "[mp3 @ 0x7f9a23805f40] Estimating duration from bitrate, this may be inaccurate\n",
      "[mp3 @ 0x7f9a23a04b00] Estimating duration from bitrate, this may be inaccurate\n",
      "[mp3 @ 0x7f9a23909300] Estimating duration from bitrate, this may be inaccurate\n",
      "[mp3 @ 0x7f9a23a04b40] Estimating duration from bitrate, this may be inaccurate\n",
      "[mp3 @ 0x7f9a23805f40] Estimating duration from bitrate, this may be inaccurate\n",
      "[mp3 @ 0x7f9a23805f40] Estimating duration from bitrate, this may be inaccurate\n",
      "[mp3 @ 0x7f9a238063c0] Estimating duration from bitrate, this may be inaccurate\n",
      "[mp3 @ 0x7f9a23806000] Estimating duration from bitrate, this may be inaccurate\n",
      "[mp3 @ 0x7f9a23805fc0] Estimating duration from bitrate, this may be inaccurate\n",
      "[mp3 @ 0x7f9a22f09100] Estimating duration from bitrate, this may be inaccurate\n",
      "[mp3 @ 0x7f9a22f050c0] Estimating duration from bitrate, this may be inaccurate\n",
      "[mp3 @ 0x7f9a23805f40] Estimating duration from bitrate, this may be inaccurate\n",
      "    Last message repeated 1 times\n",
      "[mp3 @ 0x7f9a23908740] Estimating duration from bitrate, this may be inaccurate\n",
      "[mp3 @ 0x7f9a23d04780] Estimating duration from bitrate, this may be inaccurate\n",
      "[mp3 @ 0x7f9a23908740] Estimating duration from bitrate, this may be inaccurate\n",
      "[mp3 @ 0x7f9a23805f80] Estimating duration from bitrate, this may be inaccurate\n",
      "[mp3 @ 0x7f9a23a04b00] Estimating duration from bitrate, this may be inaccurate\n",
      "[mp3 @ 0x7f9a239092c0] Estimating duration from bitrate, this may be inaccurate\n",
      "[mp3 @ 0x7f9a23908d80] Estimating duration from bitrate, this may be inaccurate\n",
      "[mp3 @ 0x7f9a23805f40] Estimating duration from bitrate, this may be inaccurate\n",
      "    Last message repeated 2 times\n",
      "[mp3 @ 0x7f9a23a04b00] Estimating duration from bitrate, this may be inaccurate\n",
      "[mp3 @ 0x7f9a23805f40] Estimating duration from bitrate, this may be inaccurate\n",
      "[mp3 @ 0x7f9a23806280] Estimating duration from bitrate, this may be inaccurate\n",
      "[mp3 @ 0x7f9a23a04e80] Estimating duration from bitrate, this may be inaccurate\n",
      "[mp3 @ 0x7f9a23908740] Estimating duration from bitrate, this may be inaccurate\n",
      "[mp3 @ 0x7f9a23a04ac0] Estimating duration from bitrate, this may be inaccurate\n",
      "[mp3 @ 0x7f9a23805f40] Estimating duration from bitrate, this may be inaccurate\n",
      "[mp3 @ 0x7f9a22f08d80] Estimating duration from bitrate, this may be inaccurate\n",
      "[mp3 @ 0x7f9a23908740] Estimating duration from bitrate, this may be inaccurate\n",
      "[mp3 @ 0x7f9a23a04b00] Estimating duration from bitrate, this may be inaccurate\n",
      "[mp3 @ 0x7f9a23a04ac0] Estimating duration from bitrate, this may be inaccurate\n",
      "[mp3 @ 0x7f9a23805f40] Estimating duration from bitrate, this may be inaccurate\n",
      "[mp3 @ 0x7f9a22f050c0] Estimating duration from bitrate, this may be inaccurate\n",
      "[mp3 @ 0x7f9a23a04ac0] Estimating duration from bitrate, this may be inaccurate\n",
      "[mp3 @ 0x7f9a23f04200] Estimating duration from bitrate, this may be inaccurate\n",
      "[mp3 @ 0x7f9a22f08d80] Estimating duration from bitrate, this may be inaccurate\n",
      "[mp3 @ 0x7f9a23a04ac0] Estimating duration from bitrate, this may be inaccurate\n",
      "[mp3 @ 0x7f9a23805f40] Estimating duration from bitrate, this may be inaccurate\n",
      "[mp3 @ 0x7f9a23e04080] Estimating duration from bitrate, this may be inaccurate\n",
      "[mp3 @ 0x7f9a22f05180] Estimating duration from bitrate, this may be inaccurate\n",
      "[mp3 @ 0x7f9a22f050c0] Estimating duration from bitrate, this may be inaccurate\n",
      "[mp3 @ 0x7f9a23805f40] Estimating duration from bitrate, this may be inaccurate\n",
      "[mp3 @ 0x7f9a23d04780] Estimating duration from bitrate, this may be inaccurate\n",
      "[mp3 @ 0x7f9a23908740] Estimating duration from bitrate, this may be inaccurate\n",
      "[mp3 @ 0x7f9a23e04080] Estimating duration from bitrate, this may be inaccurate\n",
      "[mp3 @ 0x7f9a23805f40] Estimating duration from bitrate, this may be inaccurate\n",
      "[mp3 @ 0x7f9a22f050c0] Estimating duration from bitrate, this may be inaccurate\n",
      "    Last message repeated 1 times\n",
      "[mp3 @ 0x7f9a23805f40] Estimating duration from bitrate, this may be inaccurate\n",
      "[mp3 @ 0x7f9a22f08f40] Estimating duration from bitrate, this may be inaccurate\n",
      "[mp3 @ 0x7f9a23805f40] Estimating duration from bitrate, this may be inaccurate\n",
      "[mp3 @ 0x7f9a23a04ac0] Estimating duration from bitrate, this may be inaccurate\n",
      "    Last message repeated 1 times\n",
      "[mp3 @ 0x7f9a23908840] Estimating duration from bitrate, this may be inaccurate\n",
      "[mp3 @ 0x7f9a23908740] Estimating duration from bitrate, this may be inaccurate\n",
      "[mp3 @ 0x7f9a23b04080] Estimating duration from bitrate, this may be inaccurate\n",
      "[mp3 @ 0x7f9a23a04b00] Estimating duration from bitrate, this may be inaccurate\n",
      "[mp3 @ 0x7f9a23908740] Estimating duration from bitrate, this may be inaccurate\n",
      "[mp3 @ 0x7f9a23d04780] Estimating duration from bitrate, this may be inaccurate\n",
      "[mp3 @ 0x7f9a23a04b80] Estimating duration from bitrate, this may be inaccurate\n",
      "[mp3 @ 0x7f9a23a04ac0] Estimating duration from bitrate, this may be inaccurate\n"
     ]
    },
    {
     "name": "stderr",
     "output_type": "stream",
     "text": [
      "[mp3 @ 0x7f9a23805f40] Estimating duration from bitrate, this may be inaccurate\n",
      "[mp3 @ 0x7f9a22f08d80] Estimating duration from bitrate, this may be inaccurate\n",
      "    Last message repeated 1 times\n",
      "[mp3 @ 0x7f9a23a04b00] Estimating duration from bitrate, this may be inaccurate\n",
      "[mp3 @ 0x7f9a23a04ac0] Estimating duration from bitrate, this may be inaccurate\n",
      "    Last message repeated 1 times\n",
      "[mp3 @ 0x7f9a23908740] Estimating duration from bitrate, this may be inaccurate\n",
      "[mp3 @ 0x7f9a22f08dc0] Estimating duration from bitrate, this may be inaccurate\n",
      "[mp3 @ 0x7f9a22f08d80] Estimating duration from bitrate, this may be inaccurate\n",
      "[mp3 @ 0x7f9a23a04b00] Estimating duration from bitrate, this may be inaccurate\n",
      "[mp3 @ 0x7f9a23908840] Estimating duration from bitrate, this may be inaccurate\n",
      "[mp3 @ 0x7f9a23805f40] Estimating duration from bitrate, this may be inaccurate\n",
      "    Last message repeated 1 times\n",
      "[mp3 @ 0x7f9a23a04ac0] Estimating duration from bitrate, this may be inaccurate\n",
      "[mp3 @ 0x7f9a22f09b00] Estimating duration from bitrate, this may be inaccurate\n",
      "[mp3 @ 0x7f9a23805f40] Estimating duration from bitrate, this may be inaccurate\n"
     ]
    },
    {
     "name": "stdout",
     "output_type": "stream",
     "text": [
      "Generate full audio: ./Metamorphosis/project_file/audio/5200-1_txt.mp3\n",
      "./Metamorphosis/project_file/audio/5200-1_txt.mp3\n"
     ]
    },
    {
     "name": "stderr",
     "output_type": "stream",
     "text": [
      "[mp3 @ 0x7f9a23806280] Estimating duration from bitrate, this may be inaccurate\n",
      "[mp3 @ 0x7f9a239089c0] Estimating duration from bitrate, this may be inaccurate\n",
      "[mp3 @ 0x7f9a23a04ac0] Estimating duration from bitrate, this may be inaccurate\n",
      "    Last message repeated 1 times\n",
      "[mp3 @ 0x7f9a23908740] Estimating duration from bitrate, this may be inaccurate\n",
      "size=   25856kB time=01:50:29.56 bitrate=  31.9kbits/s speed=4.42e+03x    \r",
      "[mp3 @ 0x7f9a23908740] Estimating duration from bitrate, this may be inaccurate\n",
      "[mp3 @ 0x7f9a22f09b00] Estimating duration from bitrate, this may be inaccurate\n",
      "[mp3 @ 0x7f9a23908740] Estimating duration from bitrate, this may be inaccurate\n",
      "[mp3 @ 0x7f9a23805f40] Estimating duration from bitrate, this may be inaccurate\n",
      "    Last message repeated 1 times\n",
      "size=   26987kB time=01:55:08.59 bitrate=  32.0kbits/s speed=4.43e+03x    \n",
      "video:0kB audio:26987kB subtitle:0kB other streams:0kB global headers:0kB muxing overhead: 0.000858%\n"
     ]
    }
   ],
   "source": [
    "# Merge audio files => full length\n",
    "print(test_tta.merge_audio_files(file_name))"
   ]
  },
  {
   "cell_type": "code",
   "execution_count": 14,
   "id": "b382e4e1",
   "metadata": {},
   "outputs": [
    {
     "name": "stderr",
     "output_type": "stream",
     "text": [
      "ffmpeg version 5.1.2 Copyright (c) 2000-2022 the FFmpeg developers\n",
      "  built with Apple clang version 14.0.0 (clang-1400.0.29.102)\n",
      "  configuration: --prefix=/usr/local/Cellar/ffmpeg/5.1.2 --enable-shared --enable-pthreads --enable-version3 --cc=clang --host-cflags= --host-ldflags= --enable-ffplay --enable-gnutls --enable-gpl --enable-libaom --enable-libbluray --enable-libdav1d --enable-libmp3lame --enable-libopus --enable-librav1e --enable-librist --enable-librubberband --enable-libsnappy --enable-libsrt --enable-libtesseract --enable-libtheora --enable-libvidstab --enable-libvmaf --enable-libvorbis --enable-libvpx --enable-libwebp --enable-libx264 --enable-libx265 --enable-libxml2 --enable-libxvid --enable-lzma --enable-libfontconfig --enable-libfreetype --enable-frei0r --enable-libass --enable-libopencore-amrnb --enable-libopencore-amrwb --enable-libopenjpeg --enable-libspeex --enable-libsoxr --enable-libzmq --enable-libzimg --disable-libjack --disable-indev=jack --enable-videotoolbox\n",
      "  libavutil      57. 28.100 / 57. 28.100\n",
      "  libavcodec     59. 37.100 / 59. 37.100\n",
      "  libavformat    59. 27.100 / 59. 27.100\n",
      "  libavdevice    59.  7.100 / 59.  7.100\n",
      "  libavfilter     8. 44.100 /  8. 44.100\n",
      "  libswscale      6.  7.100 /  6.  7.100\n",
      "  libswresample   4.  7.100 /  4.  7.100\n",
      "  libpostproc    56.  6.100 / 56.  6.100\n",
      "Input #0, png_pipe, from './Metamorphosis/project_file/image/5200-1_txt.png':\n",
      "  Duration: N/A, bitrate: N/A\n",
      "  Stream #0:0: Video: png, rgba(pc), 1280x720 [SAR 2835:2835 DAR 16:9], 25 fps, 25 tbr, 25 tbn\n",
      "Input #1, mp3, from './Metamorphosis/project_file/audio/5200-1_txt.mp3':\n",
      "  Metadata:\n",
      "    encoder         : Lavf59.27.100\n",
      "  Duration: 01:55:08.59, start: 0.022042, bitrate: 32 kb/s\n",
      "  Stream #1:0: Audio: mp3, 24000 Hz, mono, fltp, 32 kb/s\n",
      "Stream mapping:\n",
      "  Stream #0:0 -> #0:0 (png (native) -> h264 (libx264))\n",
      "  Stream #1:0 -> #0:1 (mp3 (mp3float) -> aac (native))\n",
      "Press [q] to stop, [?] for help\n",
      "[libx264 @ 0x7fed2e80af80] using SAR=1/1\n",
      "[libx264 @ 0x7fed2e80af80] using cpu capabilities: MMX2 SSE2Fast SSSE3 SSE4.2 AVX FMA3 BMI2 AVX2\n",
      "[libx264 @ 0x7fed2e80af80] profile High, level 3.1, 4:2:0, 8-bit\n",
      "[libx264 @ 0x7fed2e80af80] 264 - core 164 r3095 baee400 - H.264/MPEG-4 AVC codec - Copyleft 2003-2022 - http://www.videolan.org/x264.html - options: cabac=1 ref=3 deblock=1:-3:-3 analyse=0x3:0x113 me=hex subme=7 psy=1 psy_rd=2.00:0.70 mixed_ref=1 me_range=16 chroma_me=1 trellis=1 8x8dct=1 cqm=0 deadzone=21,11 fast_pskip=1 chroma_qp_offset=-4 threads=12 lookahead_threads=2 sliced_threads=0 nr=0 decimate=1 interlaced=0 bluray_compat=0 constrained_intra=0 bframes=3 b_pyramid=2 b_adapt=1 b_bias=0 direct=1 weightb=1 open_gop=0 weightp=2 keyint=250 keyint_min=25 scenecut=40 intra_refresh=0 rc_lookahead=40 rc=crf mbtree=1 crf=23.0 qcomp=0.60 qpmin=0 qpmax=69 qpstep=4 ip_ratio=1.40 aq=1:1.20\n",
      "[aac @ 0x7fed2e80c480] Too many bits 8192.000000 > 6144 per frame requested, clamping to max\n",
      "Output #0, mp4, to './Metamorphosis/project_file/video/5200-1_txt.mp4':\n",
      "  Metadata:\n",
      "    encoder         : Lavf59.27.100\n",
      "  Stream #0:0: Video: h264 (avc1 / 0x31637661), yuv420p(tv, progressive), 1280x720 [SAR 1:1 DAR 16:9], q=2-31, 25 fps, 12800 tbn\n",
      "    Metadata:\n",
      "      encoder         : Lavc59.37.100 libx264\n",
      "    Side data:\n",
      "      cpb: bitrate max/min/avg: 0/0/0 buffer size: 0 vbv_delay: N/A\n",
      "  Stream #0:1: Audio: aac (LC) (mp4a / 0x6134706D), 24000 Hz, mono, fltp, 144 kb/s\n",
      "    Metadata:\n",
      "      encoder         : Lavc59.37.100 aac\n",
      "frame=172764 fps=103 q=28.0 size=  227072kB time=01:55:08.20 bitrate= 269.3kbits/s speed=4.12x    \r"
     ]
    },
    {
     "name": "stdout",
     "output_type": "stream",
     "text": [
      "Generate full video: ./Metamorphosis/project_file/video/5200-1_txt.mp4\n",
      "./Metamorphosis/project_file/video/5200-1_txt.mp4\n"
     ]
    },
    {
     "name": "stderr",
     "output_type": "stream",
     "text": [
      "frame=172771 fps=103 q=-1.0 Lsize=  231418kB time=01:55:10.72 bitrate= 274.3kbits/s speed=4.12x    \n",
      "video:137278kB audio:89966kB subtitle:0kB other streams:0kB global headers:0kB muxing overhead: 1.836744%\n",
      "[libx264 @ 0x7fed2e80af80] frame I:692   Avg QP:11.49  size:116813\n",
      "[libx264 @ 0x7fed2e80af80] frame P:43538 Avg QP:12.46  size:   950\n",
      "[libx264 @ 0x7fed2e80af80] frame B:128541 Avg QP:17.35  size:   143\n",
      "[libx264 @ 0x7fed2e80af80] consecutive B-frames:  0.8%  0.0%  0.0% 99.2%\n",
      "[libx264 @ 0x7fed2e80af80] mb I  I16..4:  4.6% 72.0% 23.3%\n",
      "[libx264 @ 0x7fed2e80af80] mb P  I16..4:  0.0%  0.0%  0.0%  P16..4:  2.7%  0.2%  0.3%  0.0%  0.0%    skip:96.8%\n",
      "[libx264 @ 0x7fed2e80af80] mb B  I16..4:  0.0%  0.0%  0.0%  B16..8:  3.6%  0.0%  0.0%  direct: 0.0%  skip:96.4%  L0:67.2% L1:32.7% BI: 0.2%\n",
      "[libx264 @ 0x7fed2e80af80] 8x8 transform intra:72.1% inter:91.9%\n",
      "[libx264 @ 0x7fed2e80af80] coded y,uvDC,uvAC intra: 98.0% 90.9% 86.2% inter: 0.5% 0.1% 0.0%\n",
      "[libx264 @ 0x7fed2e80af80] i16 v,h,dc,p:  7%  5%  3% 85%\n",
      "[libx264 @ 0x7fed2e80af80] i8 v,h,dc,ddl,ddr,vr,hd,vl,hu: 30% 19% 19%  3%  5%  6%  6%  6%  5%\n",
      "[libx264 @ 0x7fed2e80af80] i4 v,h,dc,ddl,ddr,vr,hd,vl,hu: 26% 21%  9%  6%  7%  8%  8%  8%  6%\n",
      "[libx264 @ 0x7fed2e80af80] i8c dc,h,v,p: 52% 17% 23%  7%\n",
      "[libx264 @ 0x7fed2e80af80] Weighted P-Frames: Y:0.0% UV:0.0%\n",
      "[libx264 @ 0x7fed2e80af80] ref P L0: 55.2%  0.1% 43.8%  1.0%\n",
      "[libx264 @ 0x7fed2e80af80] ref B L0: 43.2% 56.7%  0.1%\n",
      "[libx264 @ 0x7fed2e80af80] ref B L1: 99.6%  0.4%\n",
      "[libx264 @ 0x7fed2e80af80] kb/s:162.73\n",
      "[aac @ 0x7fed2e80c480] Qavg: 65480.988\n"
     ]
    }
   ],
   "source": [
    "# Audio + Image => Video\n",
    "print(test_tta.merge_video_file(file_name))"
   ]
  },
  {
   "cell_type": "code",
   "execution_count": 13,
   "id": "004bc195",
   "metadata": {},
   "outputs": [
    {
     "name": "stdout",
     "output_type": "stream",
     "text": [
      "0:00:00 Chapter 1\n",
      "0:37:37 Chaptor 2\n",
      "1:16:04 Chaptor 3\n"
     ]
    }
   ],
   "source": [
    "print(test_tta.gen_youtube_chapter_marker(file_name))"
   ]
  },
  {
   "cell_type": "code",
   "execution_count": null,
   "id": "a692882a",
   "metadata": {},
   "outputs": [],
   "source": []
  }
 ],
 "metadata": {
  "kernelspec": {
   "display_name": "Python tts env",
   "language": "python",
   "name": "tts_env"
  },
  "language_info": {
   "codemirror_mode": {
    "name": "ipython",
    "version": 3
   },
   "file_extension": ".py",
   "mimetype": "text/x-python",
   "name": "python",
   "nbconvert_exporter": "python",
   "pygments_lexer": "ipython3",
   "version": "3.9.12"
  }
 },
 "nbformat": 4,
 "nbformat_minor": 5
}
